<svg width="57" height="41" viewBox="0 0 57 41" fill="none" xmlns="http://www.w3.org/2000/svg">
<path d="M17.6329 40.8903C14.1832 40.8903 11.1229 40.0927 8.45216 38.4977C5.81849 36.8656 3.74122 34.5286 2.22037 31.4869C0.736604 28.4081 -0.00527606 24.7544 -0.00527606 20.5256C-0.00527606 16.2969 0.736604 12.6617 2.22037 9.62C3.74122 6.54119 5.81849 4.20427 8.45216 2.60923C11.1229 0.97709 14.1832 0.161022 17.6329 0.161022C21.0827 0.161022 24.1244 0.97709 26.7581 2.60923C29.4288 4.20427 31.5061 6.54119 32.9899 9.62C34.5107 12.6617 35.2711 16.2969 35.2711 20.5256C35.2711 24.7544 34.5107 28.4081 32.9899 31.4869C31.5061 34.5286 29.4288 36.8656 26.7581 38.4977C24.1244 40.0927 21.0827 40.8903 17.6329 40.8903ZM17.6329 30.3741C20.6005 30.3741 22.0842 27.0913 22.0842 20.5256C22.0842 13.96 20.6005 10.6772 17.6329 10.6772C14.6654 10.6772 13.1816 13.96 13.1816 20.5256C13.1816 27.0913 14.6654 30.3741 17.6329 30.3741ZM56.4491 1.05128V40H43.3178V10.9554H36.6409V1.05128H56.4491Z" fill="#FF0000"/>
</svg>
