<svg width="460" height="400" viewBox="0 0 514 439" fill="none" xmlns="http://www.w3.org/2000/svg">
<path d="M149.758 184.305C144.948 145.356 109.474 117.68 70.5242 122.49C31.5748 127.3 3.89922 162.774 8.70921 201.724C13.5192 240.673 48.9932 268.349 87.9427 263.539C126.892 258.729 154.568 223.255 149.758 184.305Z" fill="#D83838"/>
<path d="M285.775 92.7991C260.432 73.0276 223.86 77.544 204.088 102.887C184.317 128.23 188.833 164.802 214.176 184.574C239.519 204.345 276.091 199.829 295.862 174.486C315.634 149.143 311.118 112.571 285.775 92.7991Z" stroke="#D9D9D9" stroke-miterlimit="10"/>
<g opacity="0.3" clip-path="url(#clip0_305_155)">
<path d="M242.136 304.716C197.099 304.716 139.221 241.603 111.372 161.107C91.9527 104.99 91.3246 52.6272 109.719 24.4611C117.62 12.4041 128.825 5.47422 142.179 4.41572C187.679 0.843275 247.954 65.2134 276.612 147.892C296.031 204.026 296.659 256.389 278.265 284.538C270.381 296.595 259.159 303.525 245.822 304.584C244.598 304.667 243.309 304.716 242.136 304.716ZM145.881 5.22613C144.658 5.22613 143.468 5.22614 142.262 5.35845C129.04 6.40041 118.363 12.9995 110.529 24.9738C92.2667 52.8918 92.9277 104.94 112.182 160.809C139.915 240.925 197.397 303.773 242.053 303.79C243.26 303.79 244.466 303.79 245.656 303.641C258.878 302.599 269.571 296 277.405 284.026C295.668 256.108 295.007 204.059 275.67 148.19C248.02 68.0747 190.521 5.22613 145.881 5.22613Z" fill="black"/>
<path d="M251.573 307.247C208.9 307.247 150.278 249.84 115.918 172.172C90.3169 114.285 83.9043 56.729 99.6217 25.5197C105.852 13.1154 115.058 5.47434 127.007 2.79501C169.978 -6.8969 235.145 53.2393 272.133 136.762C297.751 194.649 304.147 252.205 288.446 283.414C282.215 295.818 272.993 303.459 261.06 306.155C257.947 306.864 254.766 307.23 251.573 307.247V307.247ZM136.527 2.69578C133.381 2.68533 130.244 3.02369 127.173 3.70467C115.521 6.31784 106.53 13.8101 100.415 25.9332C84.8463 56.911 91.2424 114.169 116.744 171.792C150.955 249.112 209.197 306.304 251.458 306.304C254.604 306.315 257.741 305.977 260.812 305.295C272.464 302.682 281.471 295.19 287.57 283.067C303.155 252.089 296.742 194.847 271.241 137.208C237.029 59.888 178.853 2.69578 136.527 2.69578Z" fill="black"/>
<path d="M260.795 308.669C220.105 308.669 161.384 257.084 121.503 183.253C89.424 123.911 76.8799 63.1131 89.5232 28.381C94.1343 15.712 101.77 7.17784 112.248 3.04306C152.195 -12.7849 221.328 42.2573 266.497 125.747C298.56 185.105 311.121 245.887 298.477 280.619C293.866 293.304 286.214 301.822 275.752 305.973L275.571 305.527L275.752 305.973C270.981 307.806 265.906 308.72 260.795 308.669V308.669ZM127.288 1.24031C122.261 1.19538 117.271 2.09872 112.579 3.90309C102.381 7.95517 94.9111 16.2909 90.3992 28.7117C77.855 63.2123 90.3992 123.696 122.313 182.823C161.979 256.356 220.403 307.776 260.696 307.776C265.724 307.829 270.715 306.926 275.405 305.113C285.603 301.078 293.073 292.725 297.585 280.305C310.146 245.821 297.585 185.32 265.671 126.193C225.956 52.6604 167.598 1.24031 127.288 1.24031Z" fill="black"/>
<path d="M269.654 309C230.633 309 172.457 263.302 128.148 194.235C89.9201 134.694 70.9633 71.5149 79.855 33.3096C82.9125 20.1775 89.0772 10.7172 98.2002 5.19311C134.56 -16.7047 207.032 32.433 259.853 114.748C298.065 174.289 317.021 237.485 308.146 275.674C305.089 288.806 298.907 298.266 289.784 303.79C283.68 307.344 276.715 309.147 269.654 309V309ZM118.463 0.892932C111.505 0.729633 104.638 2.50474 98.6299 6.02006C89.7217 11.3787 83.7554 20.6406 80.6978 33.5246C71.8723 71.5645 90.7795 134.413 128.875 193.739C181.415 275.624 253.358 324.629 289.189 302.897L289.421 303.31L289.189 302.897C298.081 297.538 304.064 288.276 307.121 275.392C315.947 237.435 297.04 174.504 258.944 115.195C214.916 46.4912 157.087 0.892932 118.463 0.892932Z" fill="black"/>
<path d="M277.753 308.272C275.736 308.272 273.654 308.157 271.505 307.942C232.865 303.807 179.597 263.385 135.767 204.969C75.7397 124.92 52.9982 37.1634 85.0611 9.32807C92.9777 2.46435 103.555 -0.31422 116.463 1.05852C155.087 5.17676 208.355 45.5983 252.185 104.014C312.228 184.064 334.97 271.82 302.891 299.655C296.329 305.394 287.933 308.272 277.753 308.272ZM110.249 1.68701C100.332 1.68701 92.0687 4.48211 85.6892 10.0558C53.9733 37.5768 76.781 124.754 136.527 204.423C180.192 262.641 233.212 302.914 271.604 306.966C284.264 308.322 294.594 305.61 302.312 298.928L302.61 299.275L302.312 298.928C334.028 271.407 311.22 184.229 251.474 104.56C207.793 46.3426 154.773 6.06986 116.397 2.01778C114.355 1.79569 112.303 1.68527 110.249 1.68701V1.68701Z" fill="black"/>
<path d="M284.925 306.436C247.574 306.436 192.521 270.795 144.311 215.306C77.657 138.598 45.6767 48.9061 73.0789 15.3813C79.8551 7.11178 89.6062 2.77854 102.233 2.58007C139.568 1.98467 195.133 37.7587 243.74 93.694C310.394 170.402 342.391 260.094 315.038 293.619L314.675 293.321L315.038 293.619C308.279 301.888 298.511 306.238 285.901 306.42L284.925 306.436ZM103.076 3.50626H102.183C89.9036 3.68819 80.3344 7.88912 73.74 15.9602C46.6683 49.1542 78.6982 138.35 145.022 214.677C193.447 270.414 248.747 306.073 285.818 305.477C298.098 305.279 307.667 301.078 314.245 293.007C341.316 259.813 309.287 170.617 242.979 94.3059C194.934 39.0322 140.163 3.50626 103.076 3.50626Z" fill="black"/>
<path d="M290.892 303.592C255.094 303.592 202.438 273.722 153.715 225.114C81.1441 152.772 40.1069 62.2698 62.27 23.3367C67.8892 13.4133 77.0454 7.59151 89.4574 5.90452C125.107 1.05856 182.01 31.6724 234.368 83.8864C306.956 156.228 347.977 246.73 325.83 285.663C320.195 295.587 311.055 301.409 298.627 303.096C296.062 303.434 293.478 303.599 290.892 303.592V303.592ZM97.1425 6.33453C94.6001 6.32908 92.0602 6.49485 89.54 6.83071C77.4255 8.48462 68.5008 14.1906 63.0963 23.7998C41.1481 62.3855 82.1027 152.391 154.393 224.452C202.917 272.928 255.325 302.699 290.842 302.699C293.385 302.705 295.925 302.539 298.445 302.202C310.576 300.549 319.484 294.843 324.888 285.233C346.853 246.648 305.898 156.642 233.592 84.5975C185.068 36.138 132.676 6.33453 97.1425 6.33453Z" fill="black"/>
<path d="M295.47 299.87C261.242 299.87 211.643 275.508 163.747 234.243C86.0692 167.31 36.2726 77.1219 52.8495 33.1278C57.2457 21.5505 65.7903 13.9756 78.2519 10.8001C111.868 2.21626 169.152 27.3392 224.237 74.7568C301.915 141.707 351.712 231.878 335.152 275.872C330.755 287.45 322.211 295.024 309.749 298.217C305.076 299.356 300.28 299.911 295.47 299.87V299.87ZM92.581 10.0558C87.8311 10.0147 83.0948 10.5704 78.4832 11.7097C66.3357 14.8025 58.0059 22.1293 53.6923 33.4752C37.165 77.0722 86.8791 166.83 164.326 233.598C219.163 280.834 276.133 305.874 309.485 297.357C321.632 294.264 329.962 286.937 334.276 275.608L334.722 275.773L334.276 275.608C350.803 231.994 301.089 142.236 223.642 75.4845C175.911 34.3517 126.561 10.0558 92.581 10.0558Z" fill="black"/>
<path d="M297.999 295.454C286.132 295.454 272.447 292.924 257.391 287.896C231.559 279.279 202.851 263.6 174.441 242.595C92.4323 181.963 34.3886 93.2142 44.9826 44.6885C47.974 31.0768 55.9071 21.7818 68.567 17.0185C83.8877 11.2629 105.307 12.6853 130.528 21.1037C156.36 29.7371 185.068 45.3996 213.495 66.4043C295.486 127.004 353.53 215.785 342.87 264.328C339.879 277.923 331.946 287.218 319.286 291.981C312.453 294.397 305.244 295.573 297.999 295.454V295.454ZM89.7549 14.5377C82.6829 14.3912 75.6416 15.5115 68.9637 17.8455C56.6343 22.493 48.883 31.573 45.9742 44.8373C35.3802 93.0323 93.2587 181.384 175.003 241.785C231.328 283.463 287.933 302.798 319.021 291.121C331.367 286.474 339.102 277.41 342.011 264.129C352.605 215.934 294.726 127.582 212.999 67.1816C167.582 33.6073 122.033 14.5377 89.7549 14.5377V14.5377Z" fill="black"/>
<path d="M298.362 290.575C268.133 290.575 227.807 276.385 185.613 250.021C100.266 196.683 34.4709 110.481 38.9663 57.9199C40.305 42.4227 47.7589 30.8453 60.5345 24.4447C90.1679 9.55953 144.51 22.7908 202.372 59.028C287.735 112.333 353.513 198.502 349.084 251.13H348.621H349.084C347.762 266.627 340.308 278.204 327.516 284.605C319.434 288.624 309.6 290.575 298.362 290.575ZM89.6059 19.3507C78.5161 19.3507 68.8146 21.2857 60.9146 25.2386C48.2878 31.5731 41.2306 42.5716 39.9084 57.9199C35.446 110.216 101.059 196.021 186.109 249.195C228.171 275.475 268.315 289.616 298.329 289.616C309.419 289.616 319.12 287.698 327.037 283.728C339.68 277.394 346.77 266.395 348.076 251.014C352.555 198.717 286.925 112.929 201.876 59.7392C159.83 33.4916 119.686 19.3507 89.6059 19.3507Z" fill="black"/>
<path d="M296.478 285.366C269.01 285.366 234.071 275.442 197.165 256.406C109.455 211.155 36.5865 128.691 34.7189 72.5736C34.124 54.8436 40.7514 41.1493 53.8906 32.7639C81.1606 15.4806 133.635 23.0886 190.836 52.6109C278.529 97.8618 351.414 180.326 353.282 236.443C353.86 254.173 347.233 267.867 334.11 276.269C324.425 282.372 311.584 285.366 296.478 285.366ZM91.5397 24.5606C76.6652 24.5606 63.9557 27.5045 54.4029 33.5578C41.5612 41.6785 35.0825 55.1579 35.661 72.557C37.5285 128.36 110.182 210.46 197.628 255.579C254.515 284.936 306.708 292.544 333.631 275.426C346.473 267.288 352.951 253.809 352.373 236.426C350.505 180.607 277.868 98.5069 190.406 53.3882C153.616 34.4509 118.826 24.5606 91.5232 24.5606H91.5397Z" fill="black"/>
<path d="M291.536 280.503C267.952 280.503 239.574 274.185 208.9 261.665C119.9 225.279 40.6851 147.645 32.3388 88.6495C29.4961 68.6042 35.1153 52.462 48.5851 41.9597C73.8553 22.2616 122.627 24.2628 179.035 47.3349C268.1 83.7374 347.266 161.355 355.695 220.35C358.538 240.396 352.918 256.538 339.449 267.04C327.83 276.038 311.369 280.503 291.536 280.503ZM96.5142 29.423C76.8963 29.423 60.65 33.8224 49.2627 42.6543C36.0409 52.9416 30.5704 68.7861 33.3635 88.4676C41.6271 147.181 120.627 224.452 209.346 260.739C265.439 283.679 313.864 285.746 338.87 266.246C352.092 255.976 357.546 240.131 354.753 220.433C346.489 161.736 267.505 84.4486 178.77 48.1618C148.162 35.7244 119.9 29.423 96.4481 29.423H96.5142Z" fill="black"/>
<path d="M283.653 275.938C264.894 275.938 243.558 272.63 220.849 265.684C131.602 238.791 46.9658 167.127 32.0747 105.916C26.6538 83.5719 31.0169 64.8992 44.7181 51.8995C67.5422 30.2663 113.356 27.0908 167.284 43.3157C256.532 70.2083 341.168 141.872 356.042 203.083C361.48 225.428 357.1 244.117 343.399 257.1C330.161 269.62 309.303 275.938 283.653 275.938ZM104.315 33.9876C78.913 33.9876 58.3035 40.256 45.2965 52.5776C31.8598 65.3292 27.5793 83.7042 32.9341 105.701C47.8086 166.615 132.098 238.014 221.048 264.791C274.645 280.949 320.211 277.807 342.688 256.422C356.141 243.67 360.405 225.295 355.067 203.298C340.193 142.385 255.904 70.9856 166.937 44.2253C144.229 37.3782 122.975 33.9876 104.315 33.9876Z" fill="black"/>
<path d="M272.513 272.383C259.103 272.307 245.728 270.973 232.567 268.397C144.278 251.576 55.0641 186.925 33.6943 124.192C25.3315 99.6648 28.1742 78.3294 41.9579 62.4849C62.2369 39.1152 104.662 30.9283 155.451 40.6037C243.756 57.424 332.97 122.108 354.323 184.808C362.686 209.336 359.843 230.688 346.06 246.515C331.4 263.418 305.138 272.383 272.513 272.383ZM115.504 37.5274C83.1604 37.5274 57.163 46.3759 42.6686 63.0638C29.1658 78.6436 26.3892 99.6648 34.6363 123.862C55.9069 186.264 144.791 250.667 232.798 267.437C283.256 277.047 325.351 268.992 345.415 245.937C358.918 230.373 361.711 209.336 353.464 185.139C332.193 122.737 243.293 58.3336 155.302 41.563C142.173 38.9879 128.833 37.6479 115.455 37.5605L115.504 37.5274Z" fill="black"/>
<path d="M259.589 270.299C254.631 270.299 249.425 270.117 244.136 269.72C157.897 263.418 65.1622 206.689 37.4294 143.278C26.0256 117.163 27.0338 92.4538 40.2887 73.6985C58.2042 48.3275 95.969 35.7743 143.849 39.2806C230.104 45.582 322.822 102.311 350.555 165.722C361.975 191.837 360.951 216.547 347.696 235.302C331.73 257.878 300.097 270.299 259.589 270.299ZM128.379 39.7271C88.2012 39.7271 56.8325 51.9991 41.0654 74.3269C27.8436 93.0657 26.852 116.816 38.3054 142.981C65.9059 206.11 158.277 262.592 244.202 268.876C291.751 272.35 329.185 259.945 346.936 234.839C360.157 216.1 361.133 192.35 349.696 166.185C322.095 103.055 229.724 46.5743 143.782 40.306C138.527 39.8264 133.387 39.7271 128.379 39.7271Z" fill="black"/>
<path d="M244.334 269.935C164.045 269.935 75.6403 223.51 43.2469 162.927C28.455 135.273 27.1824 107.818 39.677 85.6065C54.8986 58.6147 88.7299 41.7613 132.577 39.3797C215.709 34.7653 310.856 82.7287 344.754 146.073C359.529 173.727 360.802 201.182 348.307 223.394C333.135 250.386 299.254 267.239 255.341 269.703C251.705 269.836 248.02 269.935 244.334 269.935ZM143.667 40.0413C139.986 40.0413 136.328 40.1405 132.692 40.339C89.11 42.7206 55.5101 59.392 40.5033 86.1027C28.174 108.017 29.4466 135.158 44.0732 162.513C76.3179 222.815 164.359 269.009 244.318 269.025C247.998 269.025 251.656 268.926 255.292 268.727C298.874 266.313 332.557 249.641 347.431 222.947C359.761 201.016 358.488 173.876 343.861 146.52C311.666 86.2184 223.642 40.0082 143.667 40.0082V40.0413Z" fill="black"/>
<path d="M229.41 271.555C159.45 271.555 84.8461 235.996 51.0809 182.922C32.9009 154.277 28.9343 124.258 40.0076 98.3579C52.2543 69.7287 82.1191 48.7406 121.95 40.9342C200.702 25.3543 297.139 63.5597 336.92 126.077C355.1 154.723 359.067 184.758 347.993 210.642C335.747 239.271 305.865 260.259 266.035 268.082C253.968 270.428 241.702 271.591 229.41 271.555V271.555ZM158.607 38.3541C146.366 38.323 134.15 39.4807 122.132 41.8107C82.6149 49.6337 52.9815 70.3572 40.867 98.6887C29.926 124.291 33.8264 154.012 51.8742 182.377C91.457 244.597 187.398 282.62 265.853 267.123C305.386 259.316 335.003 238.576 347.117 210.245C358.075 184.642 354.158 154.922 336.127 126.557C302.527 73.7643 228.253 38.3872 158.607 38.3872V38.3541Z" fill="black"/>
<path d="M216.007 275.161C156.36 275.161 94.5146 248.202 60.8982 203.018C39.4127 174.091 32.4051 141.823 41.2638 112.251C50.5025 81.4055 75.5909 57.1592 111.918 43.961C185.282 17.3 281.802 45.1187 327.086 105.983C348.572 134.926 355.579 167.177 346.721 196.749C337.482 227.595 312.394 251.841 276.067 265.039C256.787 271.881 236.462 275.306 216.007 275.161V275.161ZM172.011 34.7653C151.652 34.6297 131.424 38.0379 112.232 44.8376C76.2024 57.92 51.3123 81.9679 42.1727 112.499C33.3968 141.79 40.3052 173.694 61.6584 202.422C95.0931 247.359 156.624 274.202 215.973 274.202C236.333 274.337 256.56 270.929 275.753 264.129C311.782 251.031 336.672 226.999 345.828 196.451C354.604 167.144 347.679 135.257 326.343 106.512C292.891 61.6082 231.36 34.7653 172.011 34.7653Z" fill="black"/>
<path d="M205.164 280.636C155.384 280.636 104.811 260.276 72.6158 222.964C48.1389 194.55 37.8259 160.711 43.6104 127.682C49.395 94.6535 70.335 66.6858 102.695 48.4598C169.614 10.7837 265.01 27.637 315.368 86.0366C339.845 114.434 350.076 148.273 344.39 181.318C338.705 214.363 317.682 242.315 285.289 260.541C261.142 274.136 233.277 280.636 205.164 280.636ZM182.853 29.2413C154.889 29.2413 127.172 35.7081 103.158 49.2371C71.0457 67.3143 50.2709 95.2158 44.5359 127.781C38.801 160.347 49.0313 194.103 73.343 222.286C123.421 280.371 218.287 297.142 284.892 259.664C316.988 241.587 337.779 213.685 343.514 181.12C349.249 148.554 339.002 114.798 314.707 86.6155C282.661 49.5513 232.352 29.2909 182.853 29.2909V29.2413Z" fill="black"/>
<path d="M197.661 287.681C156.905 287.681 115.917 272.399 86.1518 242.496C59.2619 215.488 45.4947 180.871 47.3457 144.998C49.1637 109.853 65.8893 77.684 94.4154 54.4135C153.914 5.93741 246.929 11.4119 301.849 66.5201C328.723 93.5119 342.506 128.128 340.639 164.002C338.821 199.147 322.112 231.316 293.569 254.586C266.349 276.782 232.088 287.681 197.661 287.681ZM190.323 22.2615C156.112 22.2615 122.066 33.0946 95.0104 55.1412C66.6826 78.296 50.0893 110.167 48.2878 145.048C46.4367 180.656 60.1213 215.025 86.8129 241.835C141.353 296.645 233.906 302.037 292.991 253.859C321.302 230.704 337.895 198.833 339.713 163.952C341.548 128.36 327.863 93.9916 301.172 67.1817C271.588 37.4609 230.848 22.2615 190.323 22.2615Z" fill="black"/>
<path d="M193.91 295.918C161.647 295.88 130.368 284.797 105.27 264.509C80.1716 244.222 62.7657 215.951 55.944 184.395C49.1222 152.839 53.2953 119.897 67.7699 91.0423C82.2445 62.1877 106.149 39.158 135.512 25.7793C164.875 12.4007 197.928 9.4788 229.18 17.499C260.432 25.5192 288 43.9987 307.306 69.867C326.611 95.7354 336.49 127.435 335.302 159.7C334.114 191.964 321.93 222.85 300.775 247.226C287.513 262.56 271.099 274.848 252.656 283.251C234.213 291.654 214.175 295.975 193.91 295.918V295.918ZM194.092 14.0252C161.188 14.0275 129.331 25.5972 104.084 46.7136C78.8375 67.83 61.8062 97.1509 55.9649 129.555C50.1236 161.959 55.8436 195.387 72.1257 224.001C88.4079 252.614 114.217 274.594 145.046 286.101C175.875 297.608 209.764 297.912 240.794 286.959C271.824 276.006 298.022 254.492 314.814 226.175C331.605 197.858 337.923 164.538 332.662 132.034C327.401 99.5305 310.898 69.9092 286.033 48.3438C260.52 26.1906 227.87 14.0035 194.092 14.0252V14.0252Z" fill="black"/>
</g>
<g opacity="0.8" clip-path="url(#clip1_305_155)">
<path d="M211.118 234.39C228.863 202.123 296.887 185.524 365.531 197.29C413.388 205.488 451.151 225.671 464.083 249.948C469.608 260.359 470.158 271.118 465.654 281.102C450.286 315.108 380.418 332.929 309.89 320.883C262.021 312.678 224.258 292.496 211.338 268.225C205.806 257.826 205.263 247.055 209.76 237.082C210.183 236.174 210.655 235.231 211.118 234.39ZM463.615 283.435C464.097 282.559 464.566 281.707 464.946 280.79C469.41 270.907 468.889 260.657 463.396 250.326C450.591 226.242 413.04 206.207 365.425 197.987C297.099 186.289 229.422 202.708 211.814 234.696C211.338 235.56 210.863 236.424 210.501 237.336C206.037 247.219 206.552 257.48 212.044 267.811C224.85 291.896 262.401 311.931 310.048 320.091C378.342 331.849 446.026 315.418 463.615 283.435Z" fill="black"/>
<path d="M205.586 240.154C222.4 209.58 286.629 190.2 355.813 196.186C407.373 200.653 451.136 218.738 467.303 242.296C473.735 251.647 475.582 261.254 472.794 270.871C462.806 305.476 394.043 328.47 319.629 322.06C268.062 317.604 224.306 299.508 208.132 275.962C201.7 266.61 199.859 256.992 202.63 247.38C203.349 244.871 204.34 242.447 205.586 240.154V240.154ZM469.114 277.73C470.361 275.48 471.354 273.099 472.077 270.63C474.796 261.253 472.97 251.859 466.694 242.701C450.635 219.341 407.092 201.362 355.76 196.928C286.883 190.972 222.959 210.165 206.307 240.442C205.059 242.691 204.065 245.073 203.344 247.542C200.625 256.919 202.443 266.325 208.726 275.471C224.779 298.843 268.317 316.804 319.661 321.244C388.537 327.2 452.436 308.055 469.114 277.73Z" fill="black"/>
<path d="M200.934 246.201C216.967 217.048 277.063 195.303 345.673 195.822C400.829 196.221 449.331 211.19 469.233 233.934C476.493 242.229 479.598 251.063 478.432 260.199C474.032 295.055 407.356 322.898 329.742 322.363C274.581 321.945 226.085 306.995 206.183 284.251C198.911 275.949 195.824 267.11 196.972 257.979L197.363 258.025L196.972 257.979C197.539 253.838 198.883 249.842 200.934 246.201V246.201ZM473.797 271.685C475.81 268.101 477.129 264.17 477.686 260.097C478.8 251.195 475.772 242.558 468.651 234.431C448.875 211.85 400.599 197.005 345.662 196.572C277.35 196.016 217.489 217.613 201.613 246.482C199.593 250.062 198.274 253.995 197.725 258.069C196.598 266.965 199.638 275.608 206.759 283.735C226.516 306.322 274.811 321.162 329.748 321.594C398.08 322.115 457.914 300.565 473.797 271.685Z" fill="black"/>
<path d="M197.206 252.417C212.581 224.46 268.244 200.786 335.187 196.255C392.908 192.327 445.642 203.64 469.511 225.065C477.715 232.43 482.064 240.574 482.427 249.287C483.789 283.965 420.028 316.527 340.24 321.936C282.525 325.852 229.779 314.532 205.916 293.126C197.712 285.761 193.37 277.605 193.007 268.892C192.866 263.118 194.319 257.418 197.206 252.417V252.417ZM477.524 265.498C480.382 260.578 481.816 254.959 481.665 249.269C481.336 240.775 477.051 232.851 469.025 225.584C445.249 204.272 392.771 193.054 335.256 196.971C255.887 202.349 192.429 234.583 193.881 268.818L193.494 268.821L193.881 268.818C194.217 277.3 198.495 285.236 206.521 292.503C230.238 313.782 282.775 325.033 340.278 321.109C406.849 316.635 462.305 293.171 477.524 265.498Z" fill="black"/>
<path d="M194.536 258.506C195.33 257.061 196.234 255.615 197.234 254.16C215.422 228.105 265.371 205.869 324.494 197.484C405.498 186.019 477.332 204.305 484.641 238.244C486.439 246.62 484.262 255.293 478.193 264C460.023 290.05 410.074 312.286 350.951 320.671C269.941 332.148 198.107 313.863 190.804 279.911C189.278 272.949 190.524 265.8 194.536 258.506ZM480.191 259.301C484.098 252.196 485.352 245.174 483.872 238.407C476.652 204.84 405.206 186.83 324.586 198.244C265.67 206.588 215.926 228.706 197.895 254.616C191.935 263.152 189.808 271.621 191.554 279.784L191.188 279.86L191.554 279.784C198.774 313.351 270.22 331.36 350.84 319.947C409.762 311.591 459.507 289.473 477.531 263.575C478.495 262.2 479.383 260.773 480.191 259.301V259.301Z" fill="black"/>
<path d="M193.025 264.368C207.743 237.608 254.971 212.209 313.722 199.533C394.944 182.004 471.805 194.432 485.026 227.274C488.281 235.388 487.543 244.081 482.71 253.206C468.426 280.189 420.901 305.903 361.674 318.687C280.452 336.217 203.585 323.8 190.344 290.993L190.7 290.85L190.344 290.993C187.082 282.892 187.815 274.18 192.653 265.074L193.025 264.368ZM481.714 253.445L482.066 252.805C486.774 243.936 487.535 235.425 484.351 227.52C471.236 195.045 394.711 182.847 313.892 200.29C254.879 213.022 207.541 238.592 193.361 265.386C188.665 274.262 187.904 282.773 191.095 290.666C204.21 323.141 280.734 335.339 361.535 317.901C420.067 305.259 467.101 280.016 481.714 253.445Z" fill="black"/>
<path d="M192.712 269.764C206.817 244.116 248.965 218.16 302.989 202.406C383.414 178.917 464.424 185.176 483.585 216.395C488.48 224.332 489.044 233.185 485.362 242.743C474.787 270.193 430.432 298.899 372.392 315.838C291.961 339.338 210.957 333.067 191.79 301.86C186.901 293.912 186.331 285.07 190.02 275.501C190.788 273.53 191.687 271.614 192.712 269.764V269.764ZM482.025 248.079C483.031 246.26 483.913 244.375 484.665 242.437C488.254 233.106 487.683 224.463 482.927 216.805C463.931 185.876 383.309 179.754 303.196 203.152C249.345 218.816 207.366 244.634 193.371 270.08C192.365 271.899 191.483 273.784 190.731 275.722C187.136 285.065 187.714 293.696 192.469 301.354C211.459 332.295 292.082 338.418 372.189 315.001C426.028 299.33 468.024 273.537 482.025 248.079Z" fill="black"/>
<path d="M193.574 274.51C207.061 249.987 244.058 224.052 292.495 205.996C371.057 176.717 455.294 176.577 480.281 205.788C486.844 213.5 488.904 222.606 486.269 232.785C479.173 260.252 438.602 291.394 382.925 312.176C304.351 341.449 220.126 341.596 195.132 312.396C188.569 304.685 186.509 295.578 189.132 285.392C190.158 281.595 191.649 277.94 193.574 274.51V274.51ZM481.156 243.345C483.057 239.958 484.525 236.346 485.526 232.593C488.097 222.671 486.13 213.816 479.701 206.255C454.978 177.236 371.082 177.486 292.729 206.665C237.279 227.341 196.892 258.29 189.853 285.542C187.282 295.463 189.249 304.318 195.666 311.873L195.372 312.127L195.666 311.873C220.401 340.899 304.297 340.648 382.638 311.463C430.915 293.474 467.767 267.69 481.156 243.345Z" fill="black"/>
<path d="M195.742 278.062C200.418 269.56 207.623 260.753 217.158 251.947C233.51 236.835 256.055 222.445 282.299 210.366C358.052 175.502 444.508 168.886 475.1 195.597C483.673 203.103 487.207 212.45 485.631 223.397C483.718 236.641 474.259 251.427 458.29 266.179C441.926 281.285 419.393 295.681 393.143 307.771C317.419 342.636 230.94 349.239 200.362 322.475C191.801 314.975 188.267 305.629 189.843 294.682C190.804 288.834 192.802 283.206 195.742 278.062V278.062ZM479.06 239.554C481.951 234.545 483.923 229.059 484.882 223.355C486.411 212.69 482.959 203.559 474.602 196.249C444.247 169.668 358.142 176.322 282.658 211.088C230.604 235.02 194.447 267.957 190.563 294.831C189.029 305.508 192.474 314.62 200.843 321.937C231.198 348.518 317.304 341.864 392.781 307.11C434.731 287.8 466.341 262.68 479.06 239.554V239.554Z" fill="black"/>
<path d="M199.094 280.245C211.005 258.588 237.062 235.287 272.575 215.445C344.419 175.315 432.104 162.142 467.99 186.073C478.565 193.138 483.923 203.041 483.475 214.716C482.463 241.812 451.571 275.532 402.81 302.708C330.983 342.863 243.329 356.038 207.369 332.128L207.551 331.796L207.369 332.128C196.787 325.074 191.429 315.172 191.884 303.485C192.189 296.111 194.666 288.297 199.094 280.245ZM475.669 237.551C480.039 229.606 482.475 221.893 482.756 214.675C483.193 203.133 478.094 193.743 467.619 186.748C431.909 162.945 344.58 176.144 272.972 216.126C237.57 235.906 211.62 259.096 199.794 280.599C195.425 288.544 192.977 296.251 192.701 303.487C192.258 315.041 197.344 324.455 207.849 331.451C243.552 355.266 330.876 342.049 402.496 302.073C437.868 282.292 463.817 259.102 475.669 237.551Z" fill="black"/>
<path d="M203.569 280.948C214.392 261.268 235.269 240.146 263.449 221.206C330.43 176.196 418.224 156.482 459.165 177.256C472.102 183.816 479.302 193.96 480.132 206.677C481.77 233.025 455.643 267.623 411.953 296.972C344.979 341.97 257.179 361.696 216.237 340.922C203.307 334.35 196.107 324.206 195.258 311.494C194.702 302.15 197.617 291.77 203.569 280.948ZM471.175 236.884C477.036 226.227 479.935 215.961 479.362 206.732C478.604 194.332 471.499 184.379 458.806 177.937C418.09 157.287 330.641 176.991 263.86 221.863C220.412 251.053 194.395 285.449 196.051 311.483C196.821 323.89 203.926 333.842 216.607 340.277C257.335 360.934 344.777 341.242 411.565 296.358C439.629 277.461 460.423 256.433 471.181 236.872L471.175 236.884Z" fill="black"/>
<path d="M209 279.323C218.293 262.426 234.001 244.584 255.057 227.541C316.195 178.114 403.029 151.95 448.585 169.216C464.067 175.078 473.417 185.464 475.634 199.253C479.79 225.119 459.139 259.274 420.382 290.596C359.207 340.064 272.404 366.198 226.816 348.992C211.334 343.13 201.983 332.743 199.766 318.955C197.898 307.085 201.185 293.532 209 279.323ZM465.731 238.532C473.461 224.476 476.71 211.103 474.87 199.465C472.709 185.938 463.513 175.776 448.311 170.022C402.99 152.808 316.501 178.961 255.545 228.225C217.008 259.375 196.446 293.254 200.563 318.853C202.712 332.373 211.915 342.524 227.128 348.284C272.438 365.492 358.932 339.357 419.894 290.081C440.866 273.052 456.516 255.287 465.757 238.484L465.731 238.532Z" fill="black"/>
<path d="M215.376 275.473C222.768 262.034 233.545 248.05 247.469 234.518C301.903 181.173 386.595 148.773 436.318 162.223C454.462 167.143 466.121 177.627 470.036 192.565C476.542 217.442 460.765 251.516 427.892 283.761C373.459 337.106 288.766 369.506 239.05 356.044C220.899 351.135 209.234 340.633 205.331 325.701C201.577 311.283 205.269 293.851 215.376 275.473ZM459.386 242.322C469.396 224.122 473.025 206.887 469.323 192.713C465.481 178.061 454.003 167.754 436.133 162.923C386.631 149.579 302.264 181.834 248.031 235.012C215.335 267.045 199.632 300.929 206.097 325.459C209.932 340.122 221.417 350.418 239.28 355.26C288.783 368.605 373.149 336.349 427.377 283.154C441.23 269.582 452.034 255.69 459.386 242.322Z" fill="black"/>
<path d="M222.314 268.894C227.652 259.315 233.878 250.259 240.91 241.845C287.749 185.218 369.221 146.774 422.587 156.183C443.455 159.856 457.62 170.299 463.541 186.418C472.294 210.155 461.442 243.776 434.498 276.352C387.653 332.99 306.157 371.421 252.821 362.014C231.953 358.341 217.776 347.891 211.867 331.779C205.533 314.615 209.459 292.268 222.314 268.894ZM452.442 248.944C465.187 225.771 469.091 203.659 462.846 186.699C457.004 170.886 443.038 160.613 422.452 156.988C369.363 147.639 288.199 185.943 241.506 242.389C214.739 274.753 203.923 308.086 212.536 331.545C218.366 347.352 232.338 357.642 252.923 361.268C306.012 370.616 387.183 332.3 433.87 275.867C440.888 267.476 447.104 258.446 452.438 248.895L452.442 248.944Z" fill="black"/>
<path d="M228.899 260.456C230.852 256.903 233.034 253.245 235.402 249.612C273.898 190.309 351.081 146.222 407.44 151.338C430.643 153.458 447.949 163.917 456.164 180.803C467.282 203.636 461.395 235.639 440.017 268.561C401.515 327.876 324.338 371.951 267.98 366.835C244.769 364.727 227.47 354.256 219.255 337.37C209.372 317.036 212.937 289.478 228.899 260.456ZM445.793 257.302C461.624 228.516 465.192 201.206 455.407 181.112C447.192 164.256 430.567 154.187 407.308 152.083C351.203 146.983 274.34 190.907 235.98 249.992C214.756 282.69 208.893 314.398 219.887 337.007C228.102 353.864 244.734 363.921 267.986 366.036C324.091 371.137 400.954 327.213 439.308 268.109C441.723 264.533 443.819 260.889 445.793 257.302Z" fill="black"/>
<path d="M235.171 249.669C266.807 192.146 334.903 147.101 391.071 147.764C416.712 148.063 436.884 157.969 447.874 175.673C461.215 197.214 459.959 228.093 444.388 260.446C414.938 321.824 343.084 371.094 284.344 370.42C258.709 370.11 238.538 360.204 227.547 342.5C214.187 320.994 215.462 290.079 231 257.647C232.338 254.99 233.719 252.31 235.171 249.669ZM439.545 268.13C440.995 265.494 442.365 262.834 443.656 260.151C459.122 227.987 460.417 197.346 447.193 176.069C436.351 158.601 416.404 148.819 391.042 148.519C335.133 147.86 267.347 192.736 235.829 250.016C234.379 252.653 233.009 255.312 231.718 257.996C216.276 290.172 214.948 320.873 228.212 342.048C239.067 359.523 259.013 369.305 284.375 369.605C340.264 370.299 408.056 325.442 439.568 268.143L439.545 268.13Z" fill="black"/>
<path d="M239.889 238.338C267.455 188.215 322.328 148.776 373.657 145.498C401.344 143.76 424.414 152.746 438.607 170.885C454.293 190.94 457.562 220.607 447.461 252.219C427.592 314.781 362.221 368.819 301.755 372.687C274.069 374.424 250.987 365.432 236.806 347.299C221.12 327.244 217.857 297.566 227.947 265.947C231.021 256.377 235.021 247.131 239.889 238.338V238.338ZM434.865 279.499C439.711 270.741 443.695 261.533 446.761 252.004C456.727 220.61 453.556 191.213 438.031 171.371C423.999 153.444 401.169 144.527 373.736 146.281C313.561 150.124 248.516 203.879 228.705 266.194C218.721 297.594 221.911 326.985 237.435 346.828C251.461 364.767 274.298 373.671 301.724 371.929C352.787 368.658 407.399 329.384 434.842 279.486L434.865 279.499Z" fill="black"/>
<path d="M242.588 227.315C266.09 184.581 309.774 150.894 355.392 144.614C384.583 140.618 410.463 148.312 428.159 166.311C446.618 185.084 454.104 212.612 449.246 243.839C439.439 306.907 381.477 365.097 320.028 373.559C290.825 377.548 264.958 369.861 247.261 351.862C228.802 333.089 221.316 305.56 226.174 274.333C228.87 257.824 234.424 241.913 242.588 227.315V227.315ZM432.156 290.517C440.275 275.984 445.803 260.149 448.494 243.719C453.318 212.751 445.896 185.443 427.623 166.865C410.096 149.036 384.516 141.414 355.519 145.393C310.15 151.641 266.674 185.148 243.288 227.669C235.169 242.202 229.641 258.037 226.95 274.467C222.138 305.441 229.548 332.743 247.826 351.34C265.365 369.175 290.94 376.778 319.942 372.818C365.294 366.545 408.77 333.038 432.156 290.517Z" fill="black"/>
<path d="M242.938 217.39C262.553 181.725 297.067 153.514 336.485 145.149C366.487 138.809 394.795 144.754 416.179 161.912C437.563 179.071 449.349 205.093 449.657 235.46C450.282 298.249 400.619 359.955 338.935 373.023C308.945 379.37 280.67 373.366 259.235 356.272C237.8 339.178 226.058 313.103 225.764 282.713C225.538 260.057 231.861 237.531 242.938 217.39ZM431.841 300.461C442.86 280.426 449.148 258.021 448.917 235.485C448.619 205.355 436.815 179.477 415.743 162.536C394.671 145.596 366.455 139.624 336.684 145.938C275.337 158.929 225.941 220.288 226.548 282.774C226.853 312.893 238.651 338.782 259.722 355.723C280.794 372.664 309.017 378.623 338.781 372.322C377.963 363.966 412.302 335.905 431.806 300.442L431.841 300.461Z" fill="black"/>
<path d="M240.847 209.238C256.906 180.038 284.005 156.694 317.157 147.151C347.103 138.527 377.328 142.304 402.301 157.765C426.764 172.916 443.221 197.574 448.653 227.181C459.94 288.91 419.367 353.394 358.245 371.027C328.318 379.645 298.085 375.881 273.12 360.407C248.656 345.257 232.193 320.61 226.767 290.991C221.591 262.744 227.282 233.903 240.847 209.238ZM433.898 308.563C447.379 284.052 453.032 255.391 447.898 227.32C442.47 197.901 426.175 173.455 401.894 158.42C377.111 143.063 347.096 139.325 317.371 147.885C256.611 165.363 216.28 229.548 227.516 290.864C232.95 320.271 249.246 344.717 273.52 359.764C298.297 375.103 328.313 378.84 358.038 370.281C390.988 360.796 417.93 337.597 433.898 308.563Z" fill="black"/>
<path d="M236.424 203.304C249.163 180.204 269.428 162.161 293.853 152.174C318.277 142.186 345.39 140.855 370.687 148.401C395.983 155.948 417.94 171.918 432.91 193.658C447.879 215.398 454.96 241.599 452.975 267.907C450.99 294.216 440.06 319.048 422 338.278C403.94 357.509 379.837 369.979 353.697 373.617C327.557 377.256 300.952 371.843 278.305 358.279C255.657 344.715 238.329 323.816 229.2 299.054C223.441 283.51 221.104 266.909 222.351 250.384C223.597 233.86 228.398 217.801 236.424 203.304V203.304ZM438.314 314.508C451.278 290.933 455.541 263.55 450.36 237.142C445.179 210.733 430.883 186.978 409.968 170.025C389.054 153.072 362.851 143.998 335.935 144.389C309.019 144.78 283.102 154.611 262.71 172.164C242.318 189.717 228.748 213.877 224.368 240.425C219.989 266.972 225.08 294.219 238.751 317.407C252.422 340.595 273.806 358.25 299.166 367.288C324.526 376.327 352.251 376.174 377.499 366.857C403.424 357.307 425.02 338.717 438.314 314.508V314.508Z" fill="black"/>
</g>
<defs>
<clipPath id="clip0_305_155">
<rect width="330" height="309" fill="white" transform="translate(29.0005)"/>
</clipPath>
<clipPath id="clip1_305_155">
<rect width="269.827" height="252.656" fill="white" transform="translate(513.414 201.755) rotate(118.81)"/>
</clipPath>
</defs>
</svg>
