<svg width="101" height="116" viewBox="0 0 101 116" fill="none" xmlns="http://www.w3.org/2000/svg">
<g clip-path="url(#clip0_116_275)">
<path d="M50.5685 56.8361L63.1127 49.7085H38.6654L50.5685 56.8361Z" fill="black"/>
<path d="M38.6654 50.5115V68.6099C38.6654 69.0137 38.9496 69.3403 39.2978 69.3403H62.3148C62.664 69.3403 62.9464 69.0117 62.9464 68.6099V50.9293L50.7946 58.9596L38.6654 50.5115Z" fill="black"/>
<path d="M67.8127 21.3477H33.9634C32.1381 21.3477 30.6532 23.0649 30.6532 25.1759V93.8747C30.6532 95.9848 32.1381 97.703 33.9634 97.703H67.8127C69.6381 97.703 71.1229 95.9868 71.1229 93.8747V25.1749C71.1238 23.0649 69.6381 21.3477 67.8127 21.3477ZM53.0681 94.9969H48.708V91.6716L50.9058 89.0415L53.0681 91.6736V94.9969ZM33.9634 87.6529V25.1749H67.8127L67.8145 87.6529H33.9634Z" fill="black"/>
<path d="M49.355 91.9731V94.2504H52.4226V91.9731L50.9039 90.1216L49.355 91.9731Z" fill="black"/>
<path d="M24.4057 31.5389V19.7645C24.4057 18.6433 23.6182 17.7326 22.6497 17.7326H2.35112C1.38258 17.7316 0.594238 18.6423 0.594238 19.7645V36.2148C0.594238 37.3359 1.38258 38.2467 2.35112 38.2467H18.9739L27.1354 44.4204C27.2732 44.5246 27.4317 44.5767 27.5885 44.5767C27.773 44.5767 27.9584 44.5046 28.11 44.3633C28.389 44.1008 28.4903 43.66 28.3595 43.2722L24.4057 31.5389ZM20.0888 36.8019C20.0871 36.7979 20.0854 36.7949 20.0836 36.7909C19.9329 36.5054 19.6661 36.331 19.3767 36.331H2.35112C2.29567 36.331 2.24889 36.2779 2.24889 36.2128V19.7645C2.24889 19.6994 2.29567 19.6462 2.35112 19.6462H22.6497C22.7051 19.6462 22.751 19.6983 22.751 19.7645V31.7202C22.751 31.8395 22.7701 31.9567 22.8073 32.0679L25.8784 41.1823L20.0888 36.8019Z" fill="black"/>
<path d="M98.6482 47.6142H78.3496C77.3811 47.6142 76.5945 48.5269 76.5945 49.6471V61.4235L72.6415 73.1538C72.5107 73.5416 72.6121 73.9824 72.891 74.2449C73.0426 74.3882 73.228 74.4583 73.4125 74.4583C73.5719 74.4583 73.7279 74.4072 73.8656 74.302L82.0271 68.1303H98.6499C99.6193 68.1303 100.406 67.2165 100.406 66.0974V49.6471C100.405 48.5279 99.6176 47.6142 98.6482 47.6142ZM98.7504 66.0974C98.7504 66.1615 98.7036 66.2166 98.6482 66.2166H81.6226C81.3332 66.2166 81.0655 66.39 80.9157 66.6765C80.9139 66.6785 80.9122 66.6835 80.9105 66.6875L75.12 71.0659L78.1911 61.9505C78.2284 61.8413 78.2483 61.7211 78.2483 61.6028V49.6471C78.2483 49.5819 78.2942 49.5278 78.3488 49.5278H98.6473C98.7028 49.5278 98.7495 49.5809 98.7495 49.6471V66.0974H98.7504Z" fill="black"/>
</g>
<defs>
<clipPath id="clip0_116_275">
<rect width="99.812" height="115.435" fill="white" transform="translate(0.593994)"/>
</clipPath>
</defs>
</svg>
