<svg width="76" height="80" viewBox="0 0 76 80" fill="none" xmlns="http://www.w3.org/2000/svg">
<path d="M74.2159 77.6187H67.7333V74.431C67.7333 74.212 67.5555 74.0341 67.3365 74.0341C67.1174 74.0341 66.9396 74.212 66.9396 74.431V77.6187H59.7958V74.431C59.7958 74.212 59.618 74.0341 59.3989 74.0341C59.1799 74.0341 59.0021 74.212 59.0021 74.431V77.6187H51.8583V74.431C51.8583 74.212 51.6805 74.0341 51.4614 74.0341C51.2423 74.0341 51.0645 74.212 51.0645 74.431V77.6187H43.9207V74.431C43.9207 74.212 43.7429 74.0341 43.5239 74.0341C43.3048 74.0341 43.127 74.212 43.127 74.431V77.6187H35.9832V74.431C35.9832 74.212 35.8054 74.0341 35.5863 74.0341C35.3673 74.0341 35.1895 74.212 35.1895 74.431V77.6187H28.0457V74.431C28.0457 74.212 27.8679 74.0341 27.6488 74.0341C27.4297 74.0341 27.2519 74.212 27.2519 74.431V77.6187H20.1081V74.431C20.1081 74.212 19.9303 74.0341 19.7113 74.0341C19.4922 74.0341 19.3144 74.212 19.3144 74.431V77.6187H12.1706V74.431C12.1706 74.212 11.9928 74.0341 11.7737 74.0341C11.5547 74.0341 11.3769 74.212 11.3769 74.431V77.6187H2.38126V63.1994H6.21826C6.43654 63.1994 6.61514 63.0208 6.61514 62.8025C6.61514 62.5843 6.43654 62.4057 6.21826 62.4057H2.38126V55.2619H6.21826C6.43654 55.2619 6.61514 55.0833 6.61514 54.865C6.61514 54.6467 6.43654 54.4681 6.21826 54.4681H2.38126V47.3244H6.21826C6.43654 47.3244 6.61514 47.1458 6.61514 46.9275C6.61514 46.7092 6.43654 46.5306 6.21826 46.5306H2.38126V39.3868H6.21826C6.43654 39.3868 6.61514 39.209 6.61514 38.9899C6.61514 38.7709 6.43654 38.5931 6.21826 38.5931H2.38126V31.4493H6.21826C6.43654 31.4493 6.61514 31.2715 6.61514 31.0524C6.61514 30.8333 6.43654 30.6555 6.21826 30.6555H2.38126V23.5118H6.21826C6.43654 23.5118 6.61514 23.334 6.61514 23.1149C6.61514 22.8958 6.43654 22.718 6.21826 22.718H2.38126V15.5742H6.21826C6.43654 15.5742 6.61514 15.3964 6.61514 15.1774C6.61514 14.9583 6.43654 14.7805 6.21826 14.7805H2.38126V7.6367H6.21826C6.43654 7.6367 6.61514 7.4589 6.61514 7.23982C6.61514 7.02075 6.43654 6.84295 6.21826 6.84295H2.38126V1.19063C2.38126 0.533402 1.84786 0 1.19063 0C0.533402 0 0 0.533402 0 1.19063V78.8094C0 79.4666 0.533402 80 1.19063 80H74.2159C74.8731 80 75.4065 79.4666 75.4065 78.8094C75.4065 78.1521 74.8731 77.6187 74.2159 77.6187Z" fill="black"/>
<path d="M33.5983 26.7216L50.4584 34.9171L72.5264 20.6303L72.139 28.3591L73.7249 28.4385L74.2488 17.9776L62.9847 17.426L62.9061 19.0119L71.4572 19.4302L50.3465 33.0978L33.0752 24.7023L22.0167 40.4718L9.52221 33.3185L8.73242 34.6964L22.4858 42.5697L33.5983 26.7216Z" fill="black"/>
<path d="M72.4079 45.1154L75.2916 35.0466L64.4458 31.9542L64.01 33.4806L72.0468 35.7721L50.9488 45.1852L37.7511 32.9702L19.5011 47.0188L9.65299 45.3408L9.38629 46.9061L19.921 48.7L37.655 35.0458L50.6392 47.0609L73.0636 37.0564L70.8823 44.6788L72.4079 45.1154Z" fill="black"/>
</svg>
