<svg width="30" height="30" viewBox="0 0 30 30" fill="none" xmlns="http://www.w3.org/2000/svg">
<g clip-path="url(#clip0_27_170)">
<path d="M17.8712 14.998C17.8712 16.5837 16.5858 17.8691 15.0001 17.8691C13.4144 17.8691 12.129 16.5837 12.129 14.998C12.129 13.4124 13.4144 12.127 15.0001 12.127C16.5858 12.127 17.8712 13.4124 17.8712 14.998Z" fill="white"/>
<path d="M21.714 9.92186C21.576 9.54787 21.3558 9.20935 21.0697 8.93149C20.7919 8.64539 20.4536 8.4252 20.0794 8.28719C19.7759 8.16931 19.3199 8.02901 18.4802 7.99078C17.5717 7.94936 17.2994 7.94043 14.9996 7.94043C12.6995 7.94043 12.4272 7.94913 11.519 7.99055C10.6792 8.02901 10.223 8.16931 9.91977 8.28719C9.54555 8.4252 9.20703 8.64539 8.9294 8.93149C8.6433 9.20935 8.42311 9.54764 8.28487 9.92186C8.16699 10.2254 8.02669 10.6815 7.98846 11.5213C7.94704 12.4295 7.93811 12.7019 7.93811 15.0019C7.93811 17.3017 7.94704 17.5741 7.98846 18.4825C8.02669 19.3223 8.16699 19.7782 8.28487 20.0817C8.42311 20.4559 8.64307 20.7942 8.92917 21.0721C9.20703 21.3582 9.54532 21.5784 9.91954 21.7164C10.223 21.8345 10.6792 21.9748 11.519 22.013C12.4272 22.0544 12.6993 22.0631 14.9993 22.0631C17.2996 22.0631 17.572 22.0544 18.4799 22.013C19.3197 21.9748 19.7759 21.8345 20.0794 21.7164C20.8306 21.4266 21.4243 20.8329 21.714 20.0817C21.8319 19.7782 21.9722 19.3223 22.0107 18.4825C22.0521 17.5741 22.0608 17.3017 22.0608 15.0019C22.0608 12.7019 22.0521 12.4295 22.0107 11.5213C21.9725 10.6815 21.8322 10.2254 21.714 9.92186ZM14.9996 19.4246C12.5567 19.4246 10.5764 17.4445 10.5764 15.0017C10.5764 12.5588 12.5567 10.5788 14.9996 10.5788C17.4422 10.5788 19.4225 12.5588 19.4225 15.0017C19.4225 17.4445 17.4422 19.4246 14.9996 19.4246ZM19.5973 11.4375C19.0265 11.4375 18.5637 10.9747 18.5637 10.4039C18.5637 9.83305 19.0265 9.37025 19.5973 9.37025C20.1682 9.37025 20.631 9.83305 20.631 10.4039C20.6308 10.9747 20.1682 11.4375 19.5973 11.4375Z" fill="white"/>
<path d="M15 0C6.717 0 0 6.717 0 15C0 23.283 6.717 30 15 30C23.283 30 30 23.283 30 15C30 6.717 23.283 0 15 0ZM23.5613 18.5511C23.5197 19.468 23.3739 20.094 23.161 20.6419C22.7135 21.7989 21.7989 22.7135 20.6419 23.161C20.0942 23.3739 19.468 23.5194 18.5513 23.5613C17.6328 23.6032 17.3394 23.6133 15.0002 23.6133C12.6608 23.6133 12.3676 23.6032 11.4489 23.5613C10.5322 23.5194 9.90601 23.3739 9.35829 23.161C8.78334 22.9447 8.26286 22.6057 7.83257 22.1674C7.39449 21.7374 7.05551 21.2167 6.83922 20.6419C6.62636 20.0942 6.48056 19.468 6.4389 18.5513C6.39656 17.6326 6.38672 17.3392 6.38672 15C6.38672 12.6608 6.39656 12.3674 6.43867 11.4489C6.48033 10.532 6.6259 9.90601 6.83876 9.35806C7.05505 8.78334 7.39426 8.26263 7.83257 7.83257C8.26263 7.39426 8.78334 7.05528 9.35806 6.83899C9.90601 6.62613 10.532 6.48056 11.4489 6.43867C12.3674 6.39679 12.6608 6.38672 15 6.38672C17.3392 6.38672 17.6326 6.39679 18.5511 6.4389C19.468 6.48056 20.094 6.62613 20.6419 6.83876C21.2167 7.05505 21.7374 7.39426 22.1677 7.83257C22.6057 8.26286 22.9449 8.78334 23.161 9.35806C23.3741 9.90601 23.5197 10.532 23.5616 11.4489C23.6034 12.3674 23.6133 12.6608 23.6133 15C23.6133 17.3392 23.6034 17.6326 23.5613 18.5511Z" fill="white"/>
</g>
<defs>
<clipPath id="clip0_27_170">
<rect width="30" height="30" fill="white"/>
</clipPath>
</defs>
</svg>
