<svg width="92" height="91" viewBox="0 0 92 91" fill="none" xmlns="http://www.w3.org/2000/svg">
<g clip-path="url(#clip0_116_264)">
<path d="M83.2 38.6C79.676 38.6 76.765 41.209 76.279 44.6H58.094C57.846 41.593 56.613 38.797 54.553 36.576L54.625 36.648L68.579 22.694L67.829 21.944L53.878 35.895C51.647 33.801 48.825 32.545 45.789 32.294V13.924H45.768C49.169 13.447 51.789 10.533 51.789 7C51.789 3.134 48.655 0 44.789 0C40.924 0 37.789 3.134 37.789 7C37.789 10.533 40.41 13.447 43.811 13.924H43.789V32.281C40.506 32.488 37.449 33.847 35.109 36.188C32.832 38.465 31.478 41.419 31.216 44.6H13V45.6V46.6H31.203C31.4 49.739 32.662 52.662 34.816 54.956L21.046 68.727C20.052 67.878 18.816 67.395 17.494 67.395C16.025 67.395 14.644 67.967 13.605 69.006C11.461 71.151 11.461 74.639 13.605 76.783C14.644 77.822 16.025 78.392 17.494 78.392C18.964 78.392 20.345 77.821 21.384 76.782C22.423 75.743 22.995 74.362 22.995 72.892C22.995 71.636 22.555 70.457 21.782 69.489L35.573 55.7C37.847 57.777 40.715 58.993 43.789 59.185V77.275H43.811C40.41 77.753 37.789 80.667 37.789 84.2C37.789 88.066 40.924 91.2 44.789 91.2C48.655 91.2 51.789 88.066 51.789 84.2C51.789 80.667 49.169 77.753 45.768 77.275H45.789V59.174C48.743 58.93 51.491 57.733 53.693 55.74L67.476 69.523L68.226 68.773L54.454 55C56.635 52.697 57.908 49.758 58.105 46.6H76.279C76.765 49.992 79.675 52.6 83.2 52.6C87.066 52.6 90.2 49.467 90.2 45.6C90.2 41.734 87.066 38.6 83.2 38.6ZM56.945 47.987C56.857 48.476 56.734 48.955 56.59 49.425C56.736 48.952 56.857 48.473 56.945 47.987ZM20.677 76.076C19.827 76.926 18.697 77.394 17.494 77.394C16.291 77.394 15.162 76.925 14.312 76.077C12.558 74.323 12.558 71.467 14.312 69.713C15.162 68.863 16.291 68.395 17.494 68.395C18.697 68.395 19.827 68.864 20.677 69.713C21.528 70.563 21.995 71.693 21.995 72.895C21.995 74.098 21.527 75.227 20.677 76.076ZM44.256 54.221C46.395 54.319 48.498 53.613 50.128 52.239C48.499 53.612 46.409 54.322 44.256 54.221ZM49.959 51.037C48.544 52.451 46.661 53.23 44.655 53.23C42.649 53.23 40.765 52.451 39.352 51.037C37.938 49.623 37.159 47.74 37.159 45.734C37.159 43.729 37.937 41.845 39.351 40.431C40.765 39.017 42.649 38.239 44.655 38.239C46.661 38.239 48.545 39.018 49.959 40.431C52.883 43.354 52.883 48.112 49.959 51.037ZM57.079 44.6C56.904 42.675 56.305 40.782 55.243 39.09C56.285 40.745 56.902 42.625 57.079 44.6ZM56.014 50.949C55.793 51.428 55.544 51.892 55.264 52.342C55.545 51.891 55.795 51.426 56.014 50.949ZM56.574 49.491C56.423 49.97 56.24 50.441 56.032 50.898C56.241 50.438 56.424 49.969 56.574 49.491Z" fill="black"/>
<path d="M6 52.6C9.86599 52.6 13 49.466 13 45.6C13 41.734 9.86599 38.6 6 38.6C2.13401 38.6 -1 41.734 -1 45.6C-1 49.466 2.13401 52.6 6 52.6Z" fill="black"/>
<path d="M72.084 23.805C73.553 23.805 74.934 23.233 75.973 22.195C78.119 20.05 78.119 16.561 75.973 14.417C74.934 13.378 73.553 12.806 72.083 12.806C70.614 12.806 69.232 13.378 68.193 14.417C67.155 15.456 66.583 16.837 66.583 18.306C66.583 19.774 67.155 21.155 68.193 22.195C69.232 23.233 70.614 23.805 72.084 23.805ZM68.9 15.123C69.751 14.273 70.879 13.805 72.083 13.805C73.287 13.805 74.416 14.273 75.266 15.123C77.02 16.877 77.02 19.732 75.266 21.487C74.416 22.337 73.287 22.804 72.084 22.804C70.881 22.804 69.751 22.336 68.9 21.487C68.05 20.636 67.583 19.506 67.583 18.305C67.583 17.104 68.051 15.974 68.9 15.123Z" fill="black"/>
<path d="M72.084 67.395C70.614 67.395 69.232 67.967 68.193 69.006C67.155 70.044 66.583 71.426 66.583 72.895C66.583 74.364 67.155 75.746 68.193 76.785C69.232 77.824 70.614 78.395 72.084 78.395C73.555 78.395 74.936 77.823 75.973 76.785C78.118 74.641 78.119 71.151 75.973 69.007C74.936 67.967 73.555 67.395 72.084 67.395ZM75.266 76.077C74.416 76.928 73.287 77.394 72.084 77.394C70.881 77.394 69.751 76.925 68.9 76.077C68.05 75.226 67.583 74.098 67.583 72.894C67.583 71.69 68.051 70.562 68.9 69.711C69.751 68.861 70.879 68.394 72.084 68.394C73.286 68.394 74.416 68.863 75.266 69.711C77.02 71.467 77.02 74.322 75.266 76.077Z" fill="black"/>
<path d="M17.494 23.805C18.667 23.805 19.775 23.427 20.706 22.752L34.602 36.648L35.352 35.898L21.503 22.049C22.459 21.027 22.995 19.71 22.995 18.306C22.995 16.837 22.423 15.455 21.384 14.416C20.346 13.377 18.965 12.806 17.495 12.806C16.025 12.806 14.643 13.378 13.605 14.416C12.568 15.453 11.997 16.834 11.997 18.305C11.997 19.776 12.568 21.157 13.605 22.194C14.643 23.233 16.024 23.805 17.494 23.805ZM14.312 15.123C15.162 14.273 16.291 13.806 17.495 13.806C18.697 13.806 19.827 14.274 20.677 15.123C21.528 15.973 21.995 17.103 21.995 18.306C21.995 19.507 21.526 20.637 20.677 21.488C19.827 22.338 18.698 22.805 17.494 22.805C16.292 22.805 15.162 22.337 14.312 21.488C13.463 20.64 12.997 19.509 12.997 18.306C12.997 17.103 13.464 15.972 14.312 15.123Z" fill="black"/>
</g>
<defs>
<clipPath id="clip0_116_264">
<rect width="92" height="91" fill="white"/>
</clipPath>
</defs>
</svg>
